<svg t="1746203383354" class="icon" viewBox="0 0 1024 1024" version="1.1" xmlns="http://www.w3.org/2000/svg" p-id="8680" width="200" height="200"><path d="M458.752 907.776c-0.512 23.552-26.624 38.4-48.128 26.624l-210.432-111.104c-16.896-9.216-22.016-30.72-10.24-46.08l88.576-102.912c16.896-20.992-0.512-51.2-28.16-49.664l-131.072 16.384c-19.456 1.024-35.84-14.336-34.304-33.28L97.28 376.832c1.536-23.552 29.184-36.864 49.664-24.064L448.512 537.6c9.216 5.632 15.36 15.872 14.848 26.624l-4.608 343.552zM496.128 435.712L183.296 268.8c-21.504-11.264-22.528-40.96-1.536-53.248l206.848-119.808c16.384-10.24 38.4-4.096 47.104 13.312l28.672 105.472c14.848 37.376 69.632 35.328 87.04-1.024l42.496-109.056c8.192-16.896 30.208-23.552 47.104-13.312l201.216 124.928c20.992 12.8 19.968 41.984-1.536 53.248l-312.832 166.912c-9.728 4.608-22.016 4.608-31.744-0.512zM904.192 641.536l-131.072-16.384c-27.648-1.536-44.544 28.672-28.16 49.664l88.576 102.912c11.776 14.848 7.168 36.864-10.24 46.08l-210.432 111.104c-21.504 11.776-48.128-3.072-48.128-26.624l-4.608-343.552c0-10.752 5.632-20.992 14.848-26.624L876.544 353.28c20.48-12.8 48.128 0.512 49.664 24.064l12.288 231.424c1.536 18.432-14.848 34.304-34.304 32.768z" fill="#FF7B0F" p-id="8681"></path></svg>